<svg width="1440" height="688" viewBox="0 0 1440 688" fill="none" xmlns="http://www.w3.org/2000/svg">
<path fill-rule="evenodd" clip-rule="evenodd" d="M0 150.885L60 136.526C120 122.166 240 94.1003 360 84.9626C480 75.1721 600 84.9626 720 98.6692C840 113.029 960 131.957 1080 136.526C1200 141.095 1320 131.957 1380 127.388L1440 122.166V348H1380C1320 348 1200 348 1080 348C960 348 840 348 720 348C600 348 480 348 360 348C240 348 120 348 60 348H0V150.885Z" fill="black" fill-opacity="0.03"/>
<path fill-rule="evenodd" clip-rule="evenodd" d="M1440 545.115L1380 559.474C1320 573.834 1200 601.9 1080 611.037C960 620.828 840 611.037 720 597.331C600 582.971 480 564.043 360 559.474C240 554.905 120 564.043 60 568.612L0 573.834V348H60C120 348 240 348 360 348C480 348 600 348 720 348C840 348 960 348 1080 348C1200 348 1320 348 1380 348H1440V545.115Z" fill="black" fill-opacity="0.03"/>
</svg>
